<svg xmlns="http://www.w3.org/2000/svg" width="24.878" height="24.878" viewBox="0 0 24.878 24.878"><defs><style>.a{fill:none;stroke:#090580;stroke-linecap:round;stroke-linejoin:round;stroke-width:2px;}</style></defs><g transform="translate(1 1)"><path class="a" d="M8.719,3H20.158a5.719,5.719,0,0,1,5.719,5.719V20.158a5.719,5.719,0,0,1-5.719,5.719H8.719A5.719,5.719,0,0,1,3,20.158V8.719A5.719,5.719,0,0,1,8.719,3Z" transform="translate(-3 -3)"/><path class="a" d="M21.167,15.839a4.576,4.576,0,1,1-3.855-3.855,4.576,4.576,0,0,1,3.855,3.855Z" transform="translate(-5.152 -5.121)"/><path class="a" d="M26.25,9.75h0" transform="translate(-8.52 -4.603)"/></g></svg>