<svg xmlns="http://www.w3.org/2000/svg" width="53.534" height="53.532" viewBox="0 0 53.534 53.532"><defs><style>.a{fill:#090580;}.b{fill:#fff;}</style></defs><g transform="translate(-322.231 -9336.689)"><path class="a" d="M366.534,7073.767q0,1.314-.129,2.623t-.386,2.6q-.256,1.292-.638,2.548t-.884,2.473q-.5,1.214-1.123,2.374a26.257,26.257,0,0,1-1.351,2.253q-.73,1.095-1.565,2.111t-1.764,1.945q-.93.932-1.947,1.766t-2.109,1.563q-1.093.729-2.254,1.351t-2.374,1.123a26.212,26.212,0,0,1-2.474.885q-1.259.383-2.548.639t-2.6.386q-1.308.128-2.623.127t-2.623-.127q-1.31-.13-2.6-.387T332,7099.38q-1.259-.382-2.474-.885t-2.374-1.123q-1.16-.62-2.254-1.351t-2.109-1.564q-1.016-.834-1.947-1.766t-1.764-1.945q-.834-1.017-1.565-2.111a26.256,26.256,0,0,1-1.351-2.253q-.619-1.159-1.123-2.374t-.884-2.473q-.383-1.258-.638-2.548t-.386-2.6q-.128-1.307-.129-2.623t.129-2.624q.13-1.308.386-2.6t.638-2.547q.381-1.258.884-2.475t1.123-2.374q.619-1.16,1.351-2.253t1.565-2.11q.834-1.016,1.764-1.947t1.947-1.764q1.016-.836,2.109-1.566t2.254-1.35q1.16-.62,2.374-1.123t2.474-.884q1.257-.382,2.548-.638t2.6-.385q1.308-.128,2.623-.128t2.623.128q1.31.128,2.6.385t2.548.638q1.259.382,2.474.884t2.374,1.123q1.16.621,2.254,1.351t2.109,1.565q1.016.834,1.947,1.764t1.764,1.947q.834,1.017,1.565,2.11t1.351,2.252q.619,1.161,1.123,2.374t.884,2.475q.383,1.258.638,2.547t.386,2.6Q366.533,7072.45,366.534,7073.767Z" transform="translate(9.231 2289.689)"/><path class="b" d="M17.3,3a9.793,9.793,0,0,0-9.8,9.8c0,7.35,9.8,18.2,9.8,18.2s9.8-10.85,9.8-18.2A9.793,9.793,0,0,0,17.3,3Zm0,13.3a3.5,3.5,0,1,1,3.5-3.5A3.5,3.5,0,0,1,17.3,16.3Z" transform="translate(330.499 9347.456)"/></g></svg>