<svg xmlns="http://www.w3.org/2000/svg" width="53.534" height="53.535" viewBox="0 0 53.534 53.535"><defs><style>.a{fill:#090580;}.b{fill:#fff;}</style></defs><g transform="translate(-322.231 -9200.451)"><path class="a" d="M366.534,7008.767q0,1.316-.129,2.623t-.386,2.6q-.256,1.289-.638,2.548t-.884,2.473q-.5,1.215-1.123,2.375t-1.351,2.253q-.73,1.094-1.565,2.11t-1.764,1.947q-.93.929-1.947,1.765t-2.109,1.564q-1.093.729-2.254,1.351t-2.374,1.123q-1.215.5-2.474.885t-2.548.637q-1.289.258-2.6.387t-2.623.129q-1.316,0-2.623-.129t-2.6-.387q-1.291-.256-2.548-.638t-2.474-.884q-1.215-.5-2.374-1.123t-2.254-1.351q-1.093-.731-2.109-1.564t-1.947-1.765q-.93-.932-1.764-1.947t-1.565-2.11q-.73-1.092-1.351-2.252t-1.123-2.375q-.5-1.214-.884-2.473t-.638-2.548q-.258-1.288-.386-2.6t-.129-2.623q0-1.315.129-2.623t.386-2.6q.256-1.29.638-2.547t.884-2.474q.5-1.214,1.123-2.374t1.351-2.253q.73-1.092,1.565-2.11t1.764-1.947q.93-.929,1.947-1.764t2.109-1.564q1.093-.73,2.254-1.351t2.374-1.122q1.215-.5,2.474-.884t2.548-.64q1.289-.256,2.6-.385t2.623-.13q1.316,0,2.623.131t2.6.384q1.289.258,2.548.64t2.474.884q1.214.5,2.374,1.122t2.254,1.351q1.093.73,2.109,1.564t1.947,1.764q.93.929,1.764,1.947t1.565,2.109q.73,1.095,1.351,2.254t1.123,2.374q.5,1.216.884,2.474t.638,2.547q.258,1.29.386,2.6T366.534,7008.767Z" transform="translate(9.231 2218.452)"/><path class="b" d="M22.179,16.133l-4.994-2.14a1.07,1.07,0,0,0-1.249.308L13.725,17a16.528,16.528,0,0,1-7.9-7.9l2.7-2.212a1.068,1.068,0,0,0,.308-1.249L6.693.647A1.077,1.077,0,0,0,5.467.027L.829,1.1A1.07,1.07,0,0,0,0,2.141a20.688,20.688,0,0,0,20.69,20.69A1.07,1.07,0,0,0,21.734,22l1.07-4.637A1.083,1.083,0,0,0,22.179,16.133Z" transform="translate(336.169 9216.219)"/></g></svg>