<svg xmlns="http://www.w3.org/2000/svg" width="27.453" height="22.297" viewBox="0 0 27.453 22.297"><defs><style>.a{fill:#090580;}</style></defs><path class="a" d="M24.631,8.938c.017.244.017.488.017.732,0,7.438-5.661,16.009-16.009,16.009A15.9,15.9,0,0,1,0,23.152a11.64,11.64,0,0,0,1.359.07,11.268,11.268,0,0,0,6.985-2.4,5.636,5.636,0,0,1-5.261-3.9A7.1,7.1,0,0,0,4.146,17a5.951,5.951,0,0,0,1.481-.192,5.627,5.627,0,0,1-4.512-5.522v-.07a5.667,5.667,0,0,0,2.543.714A5.635,5.635,0,0,1,1.916,4.408a15.993,15.993,0,0,0,11.6,5.888,6.352,6.352,0,0,1-.139-1.289,5.632,5.632,0,0,1,9.738-3.85A11.078,11.078,0,0,0,26.687,3.8a5.611,5.611,0,0,1-2.474,3.1,11.28,11.28,0,0,0,3.24-.871,12.1,12.1,0,0,1-2.822,2.909Z" transform="translate(0 -3.381)"/></svg>